<svg xmlns="http://www.w3.org/2000/svg" width="38.6" height="38.7" viewBox="0 0 38.6 38.7"><style type="text/css">.st0{fill:#FFFFFF;}</style><path class="st0" d="M28.9 0h-19.3c-5.3 0-9.6 4.3-9.6 9.6v19.4c0 5.3 4.3 9.6 9.6 9.6h19.3c5.3 0 9.6-4.3 9.6-9.6v-19.4c.1-5.3-4.3-9.6-9.6-9.6zm-19.3 3.6h19.3c3.3 0 6.1 2.7 6.1 6.1v3.3h-10.2c-1.5-1.1-3.3-1.7-5.3-1.7s-3.8.6-5.3 1.7h-10.6v-3.4c0-3.3 2.7-6 6-6zm13.7 16.8c0 2.1-1.7 3.8-3.8 3.8s-3.8-1.7-3.8-3.8c0-2.1 1.7-3.8 3.8-3.8s3.8 1.7 3.8 3.8zm5.6 14.8h-19.3c-3.3 0-6.1-2.7-6.1-6.1v-12.6h7.6c-.6 1.2-.9 2.5-.9 3.9 0 5 4.1 9.2 9.2 9.2s9.2-4.1 9.2-9.2c0-1.4-.3-2.7-.9-3.9h7.3v12.6c0 3.3-2.7 6.1-6.1 6.1zM32.2 10.1c0 .6-.5 1.1-1.1 1.1h-3.3c-.6 0-1.1-.5-1.1-1.1v-3.3c0-.6.5-1.1 1.1-1.1h3.3c.6 0 1.1.5 1.1 1.1v3.3z"/></svg>