<?xml version="1.0" encoding="utf-8"?>
<!-- Generator: Adobe Illustrator 18.1.1, SVG Export Plug-In . SVG Version: 6.00 Build 0)  -->
<!DOCTYPE svg PUBLIC "-//W3C//DTD SVG 1.1//EN" "http://www.w3.org/Graphics/SVG/1.1/DTD/svg11.dtd">
<svg version="1.1" id="Layer_1" xmlns="http://www.w3.org/2000/svg" xmlns:xlink="http://www.w3.org/1999/xlink" x="0px" y="0px"
	 width="38.6px" height="38.7px" viewBox="0 0 38.6 38.7" style="enable-background:new 0 0 38.6 38.7;" xml:space="preserve">
<style type="text/css">
	.st0{fill:#FFFFFF;}
</style>
<g>
	<path class="st0" d="M28.9,0H9.6C4.3,0,0,4.3,0,9.6v19.4c0,5.3,4.3,9.6,9.6,9.6h19.3c5.3,0,9.6-4.3,9.6-9.6V9.6
		C38.6,4.3,34.2,0,28.9,0z M9.6,3.6h19.3c3.3,0,6.1,2.7,6.1,6.1V13H24.8c-1.5-1.1-3.3-1.7-5.3-1.7s-3.8,0.6-5.3,1.7H3.6V9.6
		C3.6,6.3,6.3,3.6,9.6,3.6z M23.3,20.4c0,2.1-1.7,3.8-3.8,3.8s-3.8-1.7-3.8-3.8c0-2.1,1.7-3.8,3.8-3.8S23.3,18.3,23.3,20.4z
		 M28.9,35.2H9.6c-3.3,0-6.1-2.7-6.1-6.1V16.5h7.6c-0.6,1.2-0.9,2.5-0.9,3.9c0,5,4.1,9.2,9.2,9.2s9.2-4.1,9.2-9.2
		c0-1.4-0.3-2.7-0.9-3.9H35v12.6C35,32.4,32.3,35.2,28.9,35.2z"/>
	<path class="st0" d="M32.2,10.1c0,0.6-0.5,1.1-1.1,1.1h-3.3c-0.6,0-1.1-0.5-1.1-1.1V6.8c0-0.6,0.5-1.1,1.1-1.1h3.3
		c0.6,0,1.1,0.5,1.1,1.1V10.1z"/>
</g>
<g>
</g>
<g>
</g>
<g>
</g>
<g>
</g>
<g>
</g>
<g>
</g>
</svg>
