<svg xmlns="http://www.w3.org/2000/svg" width="31" height="30.9" viewBox="0 0 31 30.9"><style type="text/css">.st0{fill:none;stroke:#FFFFFF;stroke-width:2.1059;stroke-linecap:round;stroke-miterlimit:10;} .st1{fill:#106DB2;stroke:#FFFFFF;stroke-width:2;stroke-miterlimit:10;} .st2{fill:#FFFFFF;} .st3{fill:none;stroke:#FFFFFF;stroke-width:2;stroke-miterlimit:10;}</style><path class="st0" d="M1.3 15.4h28.6"/><circle class="st1" cx="15.6" cy="15.4" r="10"/><path class="st2" d="M13 18.4l-.1.6c0 .6.2 1.1.6 1.3.1.1.3.1.5.1s.4 0 .5-.1c.2-.1.3-.2.4-.3.2-.2.3-.5.3-.8 0-.3-.1-.6-.2-.8s-.3-.5-.5-.8l-.6-.8c-.5-.6-.8-1.2-1-1.7-.2-.5-.3-1-.3-1.4 0-.4.1-.8.2-1.2.1-.4.2-.7.4-1.1.2-.3.4-.6.7-.9.3-.3.5-.5.9-.7.7-.4 1.3-.7 1.9-.7s1.1.1 1.5.3c.4.2.6.4.9.7.4.5.6 1.1.6 1.9 0 .7-.2 1.3-.6 1.9-.3.5-.7.9-1.2 1-.1 0-.2.1-.4.1s-.3 0-.4-.1c-.1 0-.2-.1-.3-.2-.2-.2-.3-.4-.3-.6 0-.1 0-.2.1-.3.4-.2.7-.5 1-.9.3-.4.5-.9.5-1.3s-.1-.8-.3-1-.5-.3-.9-.3-.7.1-1 .3c-.3.2-.6.4-.8.7-.5.6-.7 1.3-.7 2.2 0 .6.2 1.1.6 1.8l.5.8c.2.3.4.5.5.8.4.6.6 1.2.6 1.7s-.1.9-.3 1.3-.4.6-.7.9c-.6.6-1.4.8-2.2.8-.8 0-1.4-.2-1.8-.7-.3-.4-.5-.8-.5-1.2 0-.5.1-.9.4-1.2.2-.2.4-.4.6-.4.7-.2.9 0 .9.3z"/><circle class="st3" cx="15.6" cy="15.4" r="10"/></svg>