<?xml version="1.0" encoding="utf-8"?>
<!-- Generator: Adobe Illustrator 18.1.1, SVG Export Plug-In . SVG Version: 6.00 Build 0)  -->
<!DOCTYPE svg PUBLIC "-//W3C//DTD SVG 1.1//EN" "http://www.w3.org/Graphics/SVG/1.1/DTD/svg11.dtd">
<svg version="1.1" id="Layer_1" xmlns="http://www.w3.org/2000/svg" xmlns:xlink="http://www.w3.org/1999/xlink" x="0px" y="0px"
	 width="31px" height="30.9px" viewBox="0 0 31 30.9" style="enable-background:new 0 0 31 30.9;" xml:space="preserve">
<style type="text/css">
	.st0{fill:none;stroke:#FFFFFF;stroke-width:2.1059;stroke-linecap:round;stroke-miterlimit:10;}
	.st1{fill:#106DB2;stroke:#FFFFFF;stroke-width:2;stroke-miterlimit:10;}
	.st2{fill:#FFFFFF;}
	.st3{fill:none;stroke:#FFFFFF;stroke-width:2;stroke-miterlimit:10;}
</style>
<line class="st0" x1="1.3" y1="15.4" x2="29.9" y2="15.4"/>
<circle class="st1" cx="15.6" cy="15.4" r="10"/>
<g>
	<path class="st2" d="M13,18.4L12.9,19c0,0.6,0.2,1.1,0.6,1.3c0.1,0.1,0.3,0.1,0.5,0.1s0.4,0,0.5-0.1c0.2-0.1,0.3-0.2,0.4-0.3
		c0.2-0.2,0.3-0.5,0.3-0.8c0-0.3-0.1-0.6-0.2-0.8s-0.3-0.5-0.5-0.8l-0.6-0.8c-0.5-0.6-0.8-1.2-1-1.7c-0.2-0.5-0.3-1-0.3-1.4
		c0-0.4,0.1-0.8,0.2-1.2c0.1-0.4,0.2-0.7,0.4-1.1c0.2-0.3,0.4-0.6,0.7-0.9c0.3-0.3,0.5-0.5,0.9-0.7c0.7-0.4,1.3-0.7,1.9-0.7
		s1.1,0.1,1.5,0.3c0.4,0.2,0.6,0.4,0.9,0.7c0.4,0.5,0.6,1.1,0.6,1.9c0,0.7-0.2,1.3-0.6,1.9c-0.3,0.5-0.7,0.9-1.2,1
		c-0.1,0-0.2,0.1-0.4,0.1s-0.3,0-0.4-0.1c-0.1,0-0.2-0.1-0.3-0.2c-0.2-0.2-0.3-0.4-0.3-0.6c0-0.1,0-0.2,0.1-0.3
		c0.4-0.2,0.7-0.5,1-0.9c0.3-0.4,0.5-0.9,0.5-1.3c0-0.4-0.1-0.8-0.3-1s-0.5-0.3-0.9-0.3s-0.7,0.1-1,0.3c-0.3,0.2-0.6,0.4-0.8,0.7
		c-0.5,0.6-0.7,1.3-0.7,2.2c0,0.6,0.2,1.1,0.6,1.8c0.2,0.3,0.3,0.5,0.5,0.8c0.2,0.3,0.4,0.5,0.5,0.8c0.4,0.6,0.6,1.2,0.6,1.7
		s-0.1,0.9-0.3,1.3s-0.4,0.6-0.7,0.9c-0.6,0.6-1.4,0.8-2.2,0.8c-0.8,0-1.4-0.2-1.8-0.7c-0.3-0.4-0.5-0.8-0.5-1.2
		c0-0.5,0.1-0.9,0.4-1.2c0.2-0.2,0.4-0.4,0.6-0.4C12.8,17.9,13,18.1,13,18.4z"/>
</g>
<circle class="st3" cx="15.6" cy="15.4" r="10"/>
<g>
</g>
<g>
</g>
<g>
</g>
<g>
</g>
<g>
</g>
<g>
</g>
</svg>
