<svg xmlns="http://www.w3.org/2000/svg" xmlns:xlink="http://www.w3.org/1999/xlink" width="45.7" height="37.2" viewBox="0 0 45.7 37.2"><style type="text/css">.st0{clip-path:url(#SVGID_2_);} .st1{clip-path:url(#SVGID_4_);fill:#FFFFFF;}</style><defs><path id="SVGID_1_" d="M0 0h45.7v37.2h-45.7z"/></defs><clipPath id="SVGID_2_"><use xlink:href="#SVGID_1_" overflow="visible"/></clipPath><g class="st0"><defs><path id="SVGID_3_" d="M0 .1h45.6v37.1h-45.6z"/></defs><clipPath id="SVGID_4_"><use xlink:href="#SVGID_3_" overflow="visible"/></clipPath><path class="st1" d="M14.4 37.2c-5.3 0-10.3-1.5-14.4-4.2.7.1 1.5.1 2.2.1 4.4 0 8.4-1.5 11.6-4-4.1-.1-7.6-2.8-8.7-6.5.6.1 1.2.2 1.8.2.9 0 1.7-.1 2.5-.3-4.3-.9-7.5-4.6-7.5-9.2v-.1c1.3.7 2.7 1.1 4.2 1.2-2.5-1.7-4.2-4.5-4.2-7.8 0-1.7.5-3.3 1.3-4.7 4.6 5.7 11.5 9.4 19.3 9.8-.2-.7-.2-1.4-.2-2.1 0-5.2 4.2-9.4 9.4-9.4 2.7 0 5.1 1.1 6.8 3 2.1-.4 4.1-1.2 5.9-2.3-.7 2.2-2.2 4-4.1 5.2 1.9-.2 3.7-.7 5.4-1.5-1.3 1.9-2.8 3.5-4.7 4.8v1.2c0 12.4-9.4 26.6-26.6 26.6"/></g></svg>