<?xml version="1.0" encoding="utf-8"?>
<!-- Generator: Adobe Illustrator 18.1.1, SVG Export Plug-In . SVG Version: 6.00 Build 0)  -->
<!DOCTYPE svg PUBLIC "-//W3C//DTD SVG 1.1//EN" "http://www.w3.org/Graphics/SVG/1.1/DTD/svg11.dtd">
<svg version="1.1" id="Layer_1" xmlns="http://www.w3.org/2000/svg" xmlns:xlink="http://www.w3.org/1999/xlink" x="0px" y="0px"
	 width="45.7px" height="37.2px" viewBox="0 0 45.7 37.2" style="enable-background:new 0 0 45.7 37.2;" xml:space="preserve">
<style type="text/css">
	.st0{clip-path:url(#SVGID_2_);}
	.st1{clip-path:url(#SVGID_4_);fill:#FFFFFF;}
</style>
<g>
	<g>
		<defs>
			<rect id="SVGID_1_" x="0" y="0" width="45.7" height="37.2"/>
		</defs>
		<clipPath id="SVGID_2_">
			<use xlink:href="#SVGID_1_"  style="overflow:visible;"/>
		</clipPath>
		<g class="st0">
			<defs>
				<rect id="SVGID_3_" x="0" y="0.1" width="45.6" height="37.1"/>
			</defs>
			<clipPath id="SVGID_4_">
				<use xlink:href="#SVGID_3_"  style="overflow:visible;"/>
			</clipPath>
			<path class="st1" d="M14.4,37.2C9.1,37.2,4.1,35.7,0,33c0.7,0.1,1.5,0.1,2.2,0.1c4.4,0,8.4-1.5,11.6-4c-4.1-0.1-7.6-2.8-8.7-6.5
				c0.6,0.1,1.2,0.2,1.8,0.2c0.9,0,1.7-0.1,2.5-0.3c-4.3-0.9-7.5-4.6-7.5-9.2c0,0,0-0.1,0-0.1c1.3,0.7,2.7,1.1,4.2,1.2
				c-2.5-1.7-4.2-4.5-4.2-7.8c0-1.7,0.5-3.3,1.3-4.7c4.6,5.7,11.5,9.4,19.3,9.8c-0.2-0.7-0.2-1.4-0.2-2.1c0-5.2,4.2-9.4,9.4-9.4
				c2.7,0,5.1,1.1,6.8,3c2.1-0.4,4.1-1.2,5.9-2.3c-0.7,2.2-2.2,4-4.1,5.2c1.9-0.2,3.7-0.7,5.4-1.5c-1.3,1.9-2.8,3.5-4.7,4.8
				c0,0.4,0,0.8,0,1.2C41,23,31.6,37.2,14.4,37.2"/>
		</g>
	</g>
</g>
<g>
</g>
<g>
</g>
<g>
</g>
<g>
</g>
<g>
</g>
<g>
</g>
</svg>
